<?xml version="1.0" standalone="no"?>
<!DOCTYPE svg PUBLIC "-//W3C//DTD SVG 20010904//EN"
 "http://www.w3.org/TR/2001/REC-SVG-20010904/DTD/svg10.dtd">
<svg version="1.0" xmlns="http://www.w3.org/2000/svg"
 width="340.000000pt" height="318.000000pt" viewBox="0 0 340.000000 318.000000"
 preserveAspectRatio="xMidYMid meet">
<metadata>
Created by potrace 1.16, written by Peter Selinger 2001-2019
</metadata>
<g transform="translate(0.000000,318.000000) scale(0.100000,-0.100000)"
fill="#1340C4" stroke="none">
<path d="M1225 2843 c-108 -43 -175 -126 -190 -234 -7 -46 17 -205 35 -240 12
-21 0 -31 -60 -50 -66 -20 -177 -133 -224 -227 -53 -105 -103 -262 -117 -367
-7 -49 -15 -93 -19 -97 -13 -16 -86 16 -124 53 -38 39 -39 40 -34 102 7 75 39
147 108 239 66 87 243 242 380 332 85 56 30 45 -98 -19 -130 -65 -247 -149
-347 -249 -87 -88 -137 -169 -161 -263 -16 -63 -17 -79 -6 -120 7 -26 19 -59
27 -73 8 -14 19 -35 24 -47 22 -48 160 -121 256 -136 17 -2 20 -10 18 -57 -2
-98 15 -199 46 -259 58 -116 201 -283 324 -379 31 -25 57 -48 57 -52 0 -14
-57 -60 -93 -75 -157 -65 -330 220 -358 592 -6 76 -13 154 -16 173 l-6 35 -8
-35 c-5 -19 -11 -100 -15 -180 -12 -275 50 -506 169 -629 56 -58 78 -71 141
-86 58 -14 117 -7 181 19 43 18 145 97 163 126 16 27 28 25 62 -9 67 -67 197
-98 365 -87 120 7 251 35 337 72 35 15 76 27 93 28 27 1 30 -3 39 -41 33 -155
-119 -233 -371 -188 -109 19 -276 77 -397 136 -123 61 -130 50 -21 -31 105
-77 290 -163 419 -195 94 -24 124 -27 210 -23 120 6 182 31 240 100 74 86 83
204 31 375 -6 17 -3 24 11 28 11 3 47 20 82 37 113 55 198 185 272 413 17 55
34 123 36 150 11 114 12 115 48 115 48 0 112 -49 127 -99 29 -96 -26 -220
-162 -364 -81 -87 -158 -156 -215 -195 -89 -59 -135 -97 -126 -100 18 -6 205
92 302 159 118 80 245 214 289 304 26 53 35 86 39 141 6 91 -7 129 -68 202
-54 64 -121 103 -213 123 l-57 12 6 61 c13 125 -32 256 -131 386 -72 94 -142
167 -222 232 -35 28 -63 58 -63 68 0 10 18 34 40 54 36 32 46 36 94 36 66 0
98 -23 153 -109 95 -147 146 -315 164 -542 6 -79 13 -146 15 -148 10 -11 14
13 22 133 16 210 -2 354 -66 533 -69 193 -196 288 -350 262 -63 -10 -131 -51
-205 -122 -26 -26 -51 -47 -55 -47 -4 0 -31 18 -61 40 -29 22 -76 47 -104 55
-136 41 -342 24 -549 -46 -65 -21 -124 -39 -132 -39 -34 0 -37 111 -3 160 43
65 75 75 232 75 125 -1 150 -4 234 -29 94 -28 250 -90 324 -128 22 -11 42 -17
45 -13 13 13 -113 98 -244 163 -208 104 -456 150 -569 105z m590 -345 c56 -18
72 -29 105 -71 26 -32 40 -60 40 -79 0 -35 -55 -172 -87 -215 -67 -92 -190
-185 -216 -165 -106 80 -227 185 -285 247 -78 83 -152 197 -152 233 0 23 -3
22 125 46 115 22 126 23 272 25 111 1 143 -2 198 -21z m485 -184 c163 -198
240 -350 240 -473 0 -63 -25 -116 -62 -130 -13 -5 -62 -15 -109 -21 -81 -11
-92 -10 -182 14 -52 14 -113 33 -134 43 -44 22 -44 18 -20 179 21 135 56 258
103 361 37 82 59 113 80 113 7 0 45 -39 84 -86z m-1088 -184 c31 -41 68 -103
82 -137 28 -67 52 -192 43 -216 -13 -35 -297 -137 -437 -156 -95 -14 -196 -18
-205 -9 -3 3 3 39 15 79 71 260 226 483 360 519 53 14 82 -2 142 -80z m523
-440 c32 -17 63 -36 67 -43 4 -7 8 -42 8 -79 l0 -68 -47 -34 c-69 -50 -81 -51
-152 -9 l-61 36 0 77 0 77 58 36 c31 20 59 36 62 37 3 0 32 -14 65 -30z m935
-165 c0 -3 -16 -53 -35 -112 -86 -259 -203 -426 -334 -477 -46 -18 -74 -14
-105 13 -28 24 -103 125 -124 168 -22 42 -65 230 -58 249 10 26 256 118 396
148 61 14 260 22 260 11z m-1432 -108 c52 -16 96 -36 99 -44 9 -24 -16 -192
-48 -318 -33 -131 -112 -307 -141 -313 -33 -6 -198 195 -267 328 -92 176 -92
312 0 357 32 16 163 31 219 25 25 -2 87 -18 138 -35z m497 -273 c72 -47 220
-179 270 -240 90 -110 144 -199 128 -215 -10 -10 -160 -37 -278 -51 -233 -26
-425 29 -456 130 -10 35 -8 46 26 127 20 50 55 111 78 138 45 54 152 147 168
147 6 0 35 -16 64 -36z"/>
</g>
</svg>
